# xmcd CD database file
#
# Track frame offsets:
#	300
#	17572
#	31958
#	52103
#	68030
#	82434
#	97645
#	112687
#	123132
#	134065
#	153824
#	171887
#	196285
#	209576
#	223952
#	240862
#	263322
#	276990
#
# Disc length: 3914 seconds
#
# Revision: 0
# Processed by: cddbd v1.5.1PL0 Copyright (c) Steve Scherf et al.
# Submitted via: CDex 1.51
#
DISCID=f80f4612
DTITLE=Jazzset - II Record
DYEAR=2003
DGENRE=Jazz
TTITLE0=Moonlight serenade
TTITLE1=Take the A train
TTITLE2=In a sentimental mood
TTITLE3=Too young
TTITLE4=Night and day
TTITLE5=Lonely street
TTITLE6=Portrait of Louis Amstrong
TTITLE7=Take five
TTITLE8=Fly me to the moon
TTITLE9=Misty
TTITLE10=Caravan
TTITLE11=Basin' street blues
TTITLE12=Crazy drums
TTITLE13=The lady is a tramp
TTITLE14=Fever
TTITLE15=Smoke gets in your eyes
TTITLE16=Stranger in the nights
TTITLE17=All of me
EXTD=YEAR: 2003
EXTT0=
EXTT1=
EXTT2=
EXTT3=
EXTT4=
EXTT5=
EXTT6=
EXTT7=
EXTT8=
EXTT9=
EXTT10=
EXTT11=
EXTT12=
EXTT13=
EXTT14=
EXTT15=
EXTT16=
EXTT17=
PLAYORDER=
